<?xml version="1.0" encoding="utf-8"?>
<svg viewBox="0 0 500 500" xmlns="http://www.w3.org/2000/svg" xmlns:xlink="http://www.w3.org/1999/xlink">
  <defs>
    <linearGradient id="SvgjsLinearGradient1028">
      <stop id="SvgjsStop1029" stop-color="#905e26" offset="0"/>
      <stop id="SvgjsStop1030" stop-color="#f5ec9b" offset="0.5"/>
      <stop id="SvgjsStop1031" stop-color="#905e26" offset="1"/>
    </linearGradient>
    <linearGradient id="SvgjsLinearGradient1028-0" gradientUnits="userSpaceOnUse" x1="171.164" y1="362.191" x2="171.164" y2="432.791" gradientTransform="matrix(0.029615, -3.853283, 6.870168, 0.067612, -2157.258037, 2140.498784)" xlink:href="#SvgjsLinearGradient1028"/>
  </defs>
  <rect x="332.962" y="1395.673" width="499.795" height="272.051" style="stroke: rgb(0, 0, 0); fill: url('#SvgjsLinearGradient1028-0'); transform-box: fill-box; transform-origin: 50% 50%;" transform="matrix(-0.999989, -0.004763, 0.006261, -0.999982, -333.044907, -1394.074049)"/>
  <g id="SvgjsG1021" featurekey="symbolFeature-0" transform="matrix(3.682803, 0, 0, 3.488231, 78.055113, -13.271757)" fill="#000000" style="">
    <path xmlns="http://www.w3.org/2000/svg" d="M77.004,31.132c4.438,27.562-5.994,39.332-17.572,44.206c-2.512-0.095-4.41-0.905-5.635-2.417  c-0.283-0.348-0.521-0.723-0.725-1.112c8.734-4.211,17.799-10.688,17.963-19.473c0.248-13.075-4.621,5.675-18.678,17.557  c-0.678-2.704-0.203-5.429-0.197-5.465l0.029-0.152l-0.008-0.153c-1.025-10.399,1-10.399-8.621-19.261c0,0,4.811-5.064,15.951-5.064  C70.653,39.797,72.973,35.381,77.004,31.132z" style=""/>
    <path xmlns="http://www.w3.org/2000/svg" d="M23.665,58.226C19.48,40.757,33.853,71.085,58.475,77.922l0.158-1.28c-10.921-0.321-8.672-12.528-8.672-12.528  c-0.964-22.487-25.699-24.416-25.699-24.416c-13.814-1.927-19.154-8.674-19.154-8.674C2.217,93.99,58.313,79.212,58.313,79.212  l0.117-0.93C46.368,76.52,26.872,71.62,23.665,58.226z" style="fill: rgb(1, 0, 0);"/>
    <path xmlns="http://www.w3.org/2000/svg" d="M90.975,5c-8.15,2.817-16.076,12.044-21.242,19.204c0,0.001,0,0.001,0,0.002c-6.564-1.342-16.857-2.208-28.436-2.208  c-19.824,0-35.895,2.534-35.895,5.659c0,1.299,2.779,2.494,7.441,3.449c2.016-1.704,14.068-3.013,28.641-3.013  c9.598,0,18.096,0.568,23.36,1.443l-2.566,1.221c-4.98-0.689-12.289-1.125-20.437-1.125c-12.426,0-22.897,1.014-26.144,2.397  c7.625,1.549,28.333,4.741,51.256-0.337c1.852-0.226,3.242-0.58,4.205-0.897c0.121-0.029,0.248-0.057,0.365-0.085  c0.123-0.03,0.248-0.061,0.367-0.091c0.145-0.037,0.279-0.074,0.418-0.111c0.125-0.034,0.252-0.068,0.373-0.103  c0.131-0.037,0.256-0.074,0.381-0.111c0.125-0.037,0.246-0.074,0.363-0.112c0.115-0.036,0.229-0.071,0.338-0.108  c0.133-0.045,0.26-0.089,0.385-0.134c0.086-0.03,0.176-0.062,0.26-0.092c0.191-0.073,0.371-0.145,0.543-0.218  c0.074-0.032,0.145-0.064,0.215-0.095c0.105-0.048,0.211-0.096,0.311-0.146c0.068-0.034,0.135-0.068,0.199-0.102  c0.094-0.05,0.186-0.1,0.27-0.151c0.055-0.031,0.111-0.063,0.162-0.095c0.105-0.066,0.203-0.133,0.293-0.2  c0.023-0.017,0.047-0.031,0.066-0.048c0.107-0.082,0.199-0.166,0.283-0.249c0.027-0.027,0.051-0.055,0.076-0.083  c0.053-0.059,0.102-0.119,0.143-0.178c0.021-0.03,0.041-0.062,0.059-0.093c0.037-0.061,0.064-0.121,0.088-0.182  c0.012-0.028,0.025-0.055,0.033-0.084c0.025-0.087,0.043-0.177,0.043-0.266c0-0.087-0.018-0.175-0.043-0.262  c-0.008-0.027-0.018-0.053-0.029-0.078c-0.023-0.063-0.053-0.125-0.09-0.188c-0.016-0.028-0.031-0.055-0.049-0.082  c-0.053-0.076-0.113-0.153-0.186-0.229c-0.008-0.009-0.014-0.018-0.021-0.026c-0.08-0.083-0.176-0.165-0.279-0.246  c-0.035-0.028-0.072-0.054-0.111-0.082c-0.076-0.057-0.16-0.113-0.248-0.17c-0.045-0.028-0.088-0.056-0.137-0.084  c-0.109-0.065-0.227-0.13-0.35-0.195c-0.031-0.016-0.057-0.031-0.088-0.047c0-0.001-0.002-0.001-0.004-0.001  c5.305-4.718,11.754-9.786,11.754-9.786C102.124,4.691,90.975,5,90.975,5z" style="fill: rgb(1, 0, 0);"/>
  </g>
  <g id="SvgjsG1022" featurekey="nameFeature-0" transform="matrix(0.701459, 0, 0, 0.701459, 24.43659, 128.046109)" fill="#000000"/>
  <g id="SvgjsG1023" featurekey="sloganFeature-0" transform="matrix(0.513959, 0, 0, 0.513959, 50.017138, 164.259503)" fill="#000000"/>
</svg>